PathFileType	4	(X/Y/Z)	C:/Users/beibeiliu/ov580/test_trc/capture2\sequence.21_training_dense_right.trc
DataRate	CameraRate	NumFrames	NumMarkers	Units	OrigDataRate	OrigDataStartFrame	OrigNumFrames
120	120	8	19	mm	120	178	355
Frame#	Time	ThumbCMC			ThumbMCP			ThumbIP			ThumbTip			IndexMCP			IndexPIP			IndexTip			MiddleMCP			MiddlePIP			MiddleTip			RingMCP			RingPIP			RingTip			PinkyMCP			PinkyPIP			PinkyTip			BackHand1			BackHand2			BackHand3	
		X0	Y0	Z0	X1	Y1	Z1	X2	Y2	Z2	X3	Y3	Z3	X4	Y4	Z4	X5	Y5	Z5	X6	Y6	Z6	X7	Y7	Z7	X8	Y8	Z8	X9	Y9	Z9	X10	Y10	Z10	X11	Y11	Z11	X12	Y12	Z12	X13	Y13	Z13	X14	Y14	Z14	X15	Y15	Z15	X16	Y16	Z16	X17	Y17	Z17	X18	Y18	Z18	
177	1.475	65.012	101.233	5.09901	61.089	95.0514	-29.8667	61.7402	103.592	-57.3115	59.9025	106.001	-80.1597	72.1474	156.579	-44.7328	73.3164	154.34	-72.6306	72.9194	151.251	-95.5593	95.2437	142.028	-50.0796	83.1441	111.402	-60.6078	84.4826	100.805	-23.925	111.276	126.87	-50.8274	99.5267	98.1974	-49.7995	96.3158	97.2747	-14.8217	125.837	117.766	-44.1802	108.806	95.0807	-39.6319	104.55	101.123	-6.65157	121.593	134.691	5.9929	123.035	115.345	31.0743	89.3376	130.397	22.749	
178	1.48333	67.0328	99.4506	5.40413	61.7297	95.0374	-32.7004	56.902	98.5173	-58.9053	60.2512	104.777	-80.7703	73.3185	153.53	-41.4937	72.8191	153.648	-69.8888	72.4789	148.368	-97.7202	93.7944	138.717	-50.4518	85.0004	110.804	-62.9703	84.6649	98.9864	-24.1037	106.952	123.72	-51.9873	101.208	94.5223	-49.8677	97.8069	92.2398	-16.1969	123.068	117.392	-42.7791	108.221	92.0412	-38.815	106.116	93.4964	-6.42617	120.764	131.807	2.9134	123.406	114.079	28.5775	92.1045	126.959	19.2332	
179	1.49167	64.8347	93.0067	3.21787	62.5172	86.1233	-29.3698	59.7607	89.485	-53.6908	63.202	96.9608	-77.675	75.4836	146.74	-46.3547	68.6022	144.794	-71.1552	75.3386	138.297	-94.7042	93.411	131.298	-50.3207	89.0107	101.68	-63.1092	87.0793	88.6225	-27.5314	110.396	115.317	-51.3635	97.0327	86.9142	-48.1412	96.0292	85.2422	-13.8688	119.624	106.856	-44.1916	108.434	84.0484	-38.1249	106.13	87.0239	-4.00437	122.019	123.814	3.76601	122.656	104.348	29.792	89.5603	119.641	20.9799	
180	1.5	65.6698	79.4476	5.08896	59.8092	70.4391	-26.7627	58.5871	77.358	-55.3267	59.0556	81.6241	-79.1364	73.9839	131.807	-41.9005	71.3264	130.899	-73.3598	70.181	123.273	-98.4028	91.0875	115.706	-52.479	84.8787	87.0129	-60.9494	86.4862	75.8079	-25.4058	104.655	104.11	-48.8907	98.1993	71.0815	-45.4874	95.7349	70.2146	-14.8458	122.159	96.9811	-42.0644	108.982	69.643	-36.4192	107.738	74.2711	-3.86301	121.464	115.68	1.36572	120.931	94.7064	32.7101	88.1147	108.36	21.92	
181	1.50833	62.891	65.1775	4.23524	58.2164	56.3331	-27.8675	55.7815	58.4552	-52.4137	60.9722	65.2494	-76.3492	69.411	115.247	-44.3764	68.1185	112.181	-74.7741	70.0812	103.122	-97.7649	91.7862	99.6452	-51.1077	85.6687	68.5659	-60.1912	81.8978	59.5655	-23.4219	108.748	86.7407	-49.3219	99.5244	55.0516	-44.9487	92.0524	56.2531	-13.4182	121.19	77.3524	-43.9258	107.727	54.3651	-33.2355	104.323	57.5966	-3.90747	114.585	99.6448	4.7928	116.035	83.4926	30.8212	86.5614	92.241	20.1685	
182	1.51667	59.2629	48.6121	7.21387	57.7061	38.0738	-22.8016	53.7085	42.9647	-55.5295	59.7301	47.7156	-77.5669	67.3126	98.3918	-47.9036	68.0137	93.9651	-74.1375	71.0148	83.3558	-96.7573	88.6898	82.3446	-49.7967	86.7721	51.9056	-60.2262	79.9473	42.3349	-21.3354	104.133	70.8152	-47.1065	97.1924	37.1548	-43.4505	95.6915	39.927	-9.27412	118.812	60.0731	-43.5511	105.812	37.8351	-31.398	102.291	42.2712	-2.4396	114.597	86.5883	2.5066	117.878	66.1345	32.4826	83.1806	80.0434	21.8982	
183	1.525	61.6539	33.8287	9.75732	56.831	22.4336	-23.0895	52.7492	23.617	-50.7135	58.1924	27.6229	-74.8979	69.5648	80.5958	-42.8022	63.3778	75.7021	-71.6765	64.4971	65.3848	-95.7125	90.343	64.0595	-50.116	84.3771	32.0277	-57.5865	83.2646	25.9684	-20.4631	103.248	49.5273	-49.8288	94.3072	20.4024	-39.8711	91.7541	24.5043	-8.53812	121.562	43.451	-40.0467	107.298	19.0751	-29.277	101.17	31.2434	1.40015	114.784	69.8216	4.112	116.195	51.4269	34.3853	81.757	64.9348	21.052	
184	1.53333	57.4905	20.443	9.63821	56.6251	8.66309	-21.4929	53.1464	7.06133	-49.4118	59.7857	10.2168	-70.7205	65.0549	64.3325	-45.0779	63.4359	58.3459	-73.7072	66.4122	46.4191	-95.4971	87.9296	47.1217	-51.3128	84.7331	18.2658	-57.41	80.6495	9.21253	-18.0043	102.034	35.3912	-45.4257	91.3087	6.37131	-39.7534	92.1027	10.0743	-5.87673	117.31	29.1567	-37.1442	108.008	1.54797	-27.0671	104.989	13.0318	3.09233	111.752	53.0598	5.28231	111.195	40.2212	33.6815	81.532	49.2191	22.0926	
